<svg xmlns="http://www.w3.org/2000/svg" viewBox="0 0 410.52 396.18">
    <g id="Layer_1" transform="matrix(1, 0, 0, 1, -315.315247, -44.387878)">
        <g class="cls-2" style="opacity: .12;" transform="matrix(1, 0, 0, 1, 315.315247, 44.387878)">
            <g>
                <path class="cls-1"
                    d="M219.76,212.05c14.3-13.8,36.1-45.03,49.64-61.93l26.8-33.43,22.62-28.22-29.24,21.83-34.64,25.86c-17.62,13.15-49.71,33.95-64.18,47.9-8.01,7.73-8.01,20.25,0,27.98,8.01,7.73,20.99,7.73,29,0Z"
                    style="fill-rule: evenodd;"></path>
                <path class="cls-1"
                    d="M205.26,78.39c28.54,0,54.83,9.31,75.79,24.95l-32.8,24.49-.05.03-.05.04-.05.03-.05.03-.05.04-.05.04-.05.03-.05.03-.05.04-.05.03h-.02s-.03.03-.03.03l-.05.04-.05.03-.05.04-.05.03-.05.03-.05.04-.05.03-.05.03-.05.04-.04.03h0s-.05.04-.05.04l-.05.03-.05.03-.05.04-.05.03-.05.03-.09.07-.05.04-.05.03h-.01s-.03.03-.03.03l-.05.04-.05.03-.05.03-.05.04-.05.03-.05.03-.05.04-.04.03-.05.04-.03.02h-.02s-.05.05-.05.05l-.05.04-.05.03-.05.03-.05.04-.05.03-.05.04-.05.03-.05.04-.05.03h0s-.05.03-.05.03l-.05.04-.05.03-.05.04-.05.03-.05.03-.05.04-.05.03-.05.04-.05.03h-.02s-.03.03-.03.03l-.05.03c-11.82-6.49-25.49-10.2-40.06-10.2-44.8,0-81.12,35.04-81.12,78.28s36.32,78.28,81.12,78.28c37.38,0,68.85-24.4,78.25-57.58h-55.25c.77-.75,1.52-1.51,2.27-2.28,11.61-11.95,21.62-25.85,31.58-39.11h65.32c1.22,6.72,1.85,13.64,1.85,20.7,0,66.09-55.53,119.67-124.02,119.67s-124.02-53.58-124.02-119.67,55.53-119.67,124.02-119.67h-.03Z"
                    style="fill-rule: evenodd;"></path>
                <path class="cls-1"
                    d="M205.26,354.79c-87.96,0-159.6-67.47-162.34-151.71H0c2.76,107.1,93.6,193.1,205.26,193.1s202.5-86,205.26-193.1h-42.91c-2.75,84.24-74.38,151.71-162.34,151.71h0Z"
                    style="fill-rule: evenodd;"></path>
                <path class="cls-1"
                    d="M0,193.04h42.91c1.29-39.49,17.72-75.3,43.87-102.19l-30.35-29.28C22.53,95.97,1.31,142.12,0,193.04h0Z"
                    style="fill-rule: evenodd;"></path>
                <path class="cls-1"
                    d="M63.8,54.46l30.34,29.28c27.87-25.23,64.98-41.09,105.91-42.33V0c-52.77,1.27-100.59,21.74-136.25,54.46Z"
                    style="fill-rule: evenodd;"></path>
                <path class="cls-1"
                    d="M210.47,0v41.41c40.92,1.24,78.03,17.09,105.9,42.33l30.34-29.28C311.06,21.75,263.24,1.27,210.47,0h0Z"
                    style="fill-rule: evenodd;"></path>
                <path class="cls-1"
                    d="M354.08,61.57l-30.35,29.28c26.15,26.9,42.58,62.7,43.87,102.19h42.91c-1.31-50.92-22.53-97.07-56.44-131.47h0Z"
                    style="fill-rule: evenodd;"></path>
            </g>
        </g>
    </g>
</svg>