<?xml version="1.0" encoding="UTF-8"?>
<svg id="Layer_1" data-name="Layer 1" xmlns="http://www.w3.org/2000/svg" viewBox="0 0 181.72 41.29">
  <defs>
    <style>
      .cls-1 {
        fill: rgba(255, 255, 255, .94);
        fill-rule: evenodd;
      }

      .cls-2 {
        fill: #fff;
      }
    </style>
  </defs>
  <g>
    <path class="cls-2" d="M76.72,20v1.73c0,3.01-.94,5.42-2.81,7.21-1.87,1.79-4.25,2.69-7.13,2.69-3.13,0-5.73-1.01-7.79-3.02-2.06-2.01-3.09-4.49-3.09-7.43s1.02-5.42,3.07-7.46c2.04-2.03,4.54-3.05,7.5-3.05,1.88,0,3.6.42,5.17,1.27,1.56.84,2.78,1.96,3.64,3.34l-3.92,2.25c-.44-.69-1.1-1.26-1.97-1.7-.87-.44-1.86-.66-2.95-.66-1.71,0-3.12.57-4.25,1.7-1.12,1.13-1.68,2.58-1.68,4.35s.58,3.17,1.73,4.27c1.15,1.1,2.69,1.66,4.61,1.66,2.67,0,4.39-1.04,5.15-3.11h-5.38v-4.03h10.11Z"/>
    <path class="cls-2" d="M96.35,28.61c-2.03,2.02-4.51,3.02-7.43,3.02s-5.39-1.01-7.43-3.02c-2.03-2.01-3.05-4.5-3.05-7.46s1.02-5.44,3.05-7.46c2.03-2.02,4.51-3.02,7.43-3.02s5.39,1.01,7.43,3.02c2.03,2.02,3.05,4.5,3.05,7.46s-1.02,5.44-3.05,7.46ZM84.74,25.47c1.12,1.11,2.52,1.67,4.19,1.67s3.07-.56,4.19-1.67c1.12-1.11,1.68-2.55,1.68-4.32s-.56-3.21-1.68-4.32c-1.12-1.11-2.52-1.67-4.19-1.67s-3.07.56-4.19,1.67c-1.12,1.11-1.68,2.55-1.68,4.32s.56,3.21,1.68,4.32Z"/>
    <path class="cls-2" d="M114.41,31.23l-1.08-3.17h-7.75l-1.01,3.17h-5.04l6.85-20.15h5.87l6.87,20.15h-4.71ZM106.98,23.74h4.88l-2.52-7.4-2.36,7.4Z"/>
    <path class="cls-2" d="M125.46,26.79h7.2v4.43h-11.8V11.07h4.61v15.72Z"/>
    <path class="cls-2" d="M145.7,20.72c1.75,1.13,2.62,2.75,2.62,4.84,0,1.86-.65,3.34-1.94,4.43-1.3,1.09-3.11,1.64-5.46,1.64s-4.16-.55-5.46-1.64c-1.3-1.09-1.94-2.57-1.94-4.43,0-2.09.87-3.7,2.62-4.84-1.29-1-1.93-2.35-1.93-4.06,0-1.88.63-3.35,1.9-4.41s2.87-1.58,4.81-1.58,3.54.53,4.81,1.58,1.9,2.52,1.9,4.41c0,1.71-.64,3.06-1.93,4.06ZM138.91,26.66c.52.43,1.19.65,2.01.65s1.5-.22,2.02-.65.78-1.02.78-1.77-.26-1.34-.78-1.77-1.19-.65-2.02-.65-1.5.22-2.01.65c-.52.43-.78,1.02-.78,1.77s.26,1.34.78,1.77ZM142.45,15.54c-.38-.36-.89-.55-1.53-.55s-1.14.18-1.53.55c-.38.36-.58.83-.58,1.41s.19,1.05.58,1.41c.38.36.89.55,1.53.55s1.14-.18,1.53-.55c.38-.36.58-.83.58-1.41s-.19-1.05-.58-1.41Z"/>
    <path class="cls-2" d="M157.1,18.16c1.98,0,3.62.59,4.94,1.77,1.31,1.18,1.97,2.84,1.97,4.97s-.71,3.76-2.13,4.95c-1.42,1.19-3.16,1.79-5.21,1.79-1.67,0-3.14-.36-4.41-1.08s-2.2-1.8-2.79-3.24l3.97-2.3c.5,1.42,1.57,2.13,3.22,2.13.9,0,1.58-.21,2.04-.63.46-.42.69-.96.69-1.61s-.22-1.19-.66-1.61c-.44-.42-1.08-.63-1.93-.63h-6.3l.83-11.57h11.66v4.32h-7.34l-.2,2.76h1.64Z"/>
    <path class="cls-2" d="M179.54,28.76c-1.45,1.91-3.46,2.87-6.03,2.87s-4.58-.96-6.03-2.87c-1.45-1.91-2.17-4.45-2.17-7.61s.72-5.71,2.17-7.62,3.46-2.87,6.03-2.87,4.58.96,6.03,2.87c1.45,1.91,2.17,4.45,2.17,7.62s-.72,5.71-2.17,7.61ZM169.91,21.15c0,3.99,1.2,5.99,3.6,5.99s3.6-2,3.6-5.99-1.2-5.99-3.6-5.99-3.6,2-3.6,5.99Z"/>
  </g>
  <g>
    <path class="cls-1" d="M22.9,22.1c1.49-1.44,3.76-4.69,5.17-6.45l2.79-3.48,2.36-2.94-3.05,2.27-3.61,2.7c-1.84,1.37-5.18,3.54-6.69,4.99-.83.81-.83,2.11,0,2.92.83.81,2.19.81,3.02,0Z"/>
    <path class="cls-1" d="M21.39,8.17c2.97,0,5.71.97,7.9,2.6l-3.42,2.55h0s0,0,0,0h0s0,0,0,0h0s0,0,0,0h0s0,0,0,0h0s0,0,0,0h0s0,0,0,0h0s0,0,0,0h0s0,0,0,0h0s0,0,0,0h0s0,0,0,0h0s0,0,0,0h0s0,0,0,0h0s0,0,0,0h0s0,0,0,0h0s0,.01,0,.01h0s0,0,0,0h0s0,0,0,0h0s0,0,0,0h0s0,0,0,0h0s0,0,0,0h0s0,0,0,0h0s0,0,0,0h0s0,0,0,0h0s0,0,0,0h0s0,0,0,0h0s0,0,0,0h0s0,0,0,0h0s0,0,0,0h0s0,0,0,0h0s0,0,0,0h0s0,0,0,0h0s0,0,0,0h0s0,0,0,0h0s0,0,0,0c-1.23-.68-2.66-1.06-4.18-1.06-4.67,0-8.45,3.65-8.45,8.16s3.79,8.16,8.45,8.16c3.9,0,7.18-2.54,8.16-6h-5.76c.08-.08.16-.16.24-.24,1.21-1.25,2.25-2.69,3.29-4.08h6.81c.13.7.19,1.42.19,2.16,0,6.89-5.79,12.47-12.93,12.47s-12.93-5.58-12.93-12.47,5.79-12.47,12.93-12.47h0Z"/>
    <path class="cls-1" d="M21.39,36.98c-9.17,0-16.63-7.03-16.92-15.81H0c.29,11.16,9.76,20.13,21.39,20.13s21.11-8.96,21.39-20.13h-4.47c-.29,8.78-7.75,15.81-16.92,15.81h0Z"/>
    <path class="cls-1" d="M0,20.12h4.47c.13-4.12,1.85-7.85,4.57-10.65l-3.16-3.05C2.35,10,.14,14.81,0,20.12h0Z"/>
    <path class="cls-1" d="M6.65,5.68l3.16,3.05c2.91-2.63,6.77-4.28,11.04-4.41V0c-5.5.13-10.48,2.27-14.2,5.68Z"/>
    <path class="cls-1" d="M21.94,0v4.32c4.27.13,8.13,1.78,11.04,4.41l3.16-3.05C32.42,2.27,27.44.13,21.94,0h0Z"/>
    <path class="cls-1" d="M36.9,6.42l-3.16,3.05c2.73,2.8,4.44,6.54,4.57,10.65h4.47c-.14-5.31-2.35-10.12-5.88-13.7h0Z"/>
  </g>
</svg>